<svg width="50" height="50" viewBox="0 0 50 50" fill="none" xmlns="http://www.w3.org/2000/svg">
<path d="M35.3542 25.5208V34.8958C35.3542 42.7083 32.2292 45.8333 24.4167 45.8333H15.0417C7.22925 45.8333 4.10425 42.7083 4.10425 34.8958V25.5208C4.10425 17.7083 7.22925 14.5833 15.0417 14.5833H24.4167C32.2292 14.5833 35.3542 17.7083 35.3542 25.5208Z" stroke="#DF5E63" stroke-width="3.125" stroke-linecap="round" stroke-linejoin="round"/>
<path d="M45.7709 15.6251C45.7709 21.6042 41.2084 26.5001 35.3542 27.0209V25.5209C35.3542 17.7084 32.2292 14.5834 24.4167 14.5834H22.9167C23.4376 8.72925 28.3334 4.16675 34.3126 4.16675C40.1251 4.16675 44.9167 8.47925 45.6459 14.1042C45.7292 14.5834 45.7709 15.1042 45.7709 15.6251Z" stroke="#DF5E63" stroke-width="3.125" stroke-linecap="round" stroke-linejoin="round"/>
</svg>
