<svg width="101" height="101" viewBox="0 0 101 101" fill="none" xmlns="http://www.w3.org/2000/svg">
<g clip-path="url(#clip0_1_106)">
<path d="M22.1595 28.1475C16.2819 28.1475 10.645 30.4823 6.48897 34.6384C2.3329 38.7945 -0.00195312 44.4313 -0.00195312 50.3089C-0.00195312 56.1864 2.3329 61.8233 6.48897 65.9794C10.645 70.1354 16.2819 72.4703 22.1595 72.4703C27.9624 72.3574 33.4895 69.9729 37.5535 65.8292C41.6175 61.6854 43.894 56.1129 43.894 50.3089C43.894 44.5048 41.6175 38.9324 37.5535 34.7886C33.4895 30.6448 27.9624 28.2603 22.1595 28.1475ZM22.1595 31.753C22.3691 31.753 22.8135 31.753 23.0399 31.7614V33.4929C22.7464 33.4866 22.453 33.4824 22.1595 33.4803C19.9504 33.4748 17.7621 33.9073 15.7213 34.7529C13.6804 35.5984 11.8275 36.8402 10.2696 38.4064C8.70263 39.9638 7.46034 41.8166 6.61473 43.8576C5.76911 45.8986 5.33701 48.0871 5.34345 50.2963C5.34345 54.7906 7.09171 59.0166 10.2696 62.1861C11.8275 63.7524 13.6804 64.9942 15.7213 65.8397C17.7621 66.6853 19.9504 67.1178 22.1595 67.1123C26.4222 67.1045 30.5236 65.4821 33.6377 62.5718C36.7518 59.6616 38.6471 55.6797 38.9419 51.4283V51.1767H27.4629V49.4578H39.9607L40.7028 49.4536V50.2963C40.7105 52.7323 40.235 55.1457 39.3038 57.3967C38.3726 59.6477 37.0041 61.6917 35.2777 63.4103C33.5579 65.1382 31.5128 66.508 29.2604 67.4406C27.008 68.3732 24.5931 68.8501 22.1553 68.8438C17.2081 68.8438 12.5545 66.9153 9.03283 63.4103C7.30715 61.6914 5.93949 59.6472 5.00901 57.3962C4.07852 55.1452 3.60368 52.732 3.61196 50.2963C3.6175 45.3785 5.57326 40.6637 9.05027 37.1859C12.5273 33.7081 17.2417 31.7513 22.1595 31.7446V31.753ZM89.5032 35.434C80.2378 35.434 75.3661 40.4943 75.3661 50.1412C75.3661 59.7419 79.7682 64.9406 89.4528 64.9406C93.8969 64.9406 98.2528 63.8086 100.617 62.1526V48.2504H89.13V53.5916H94.5173V58.6016C93.5237 58.9789 91.5826 59.3604 89.7379 59.3604C83.7846 59.3604 81.7974 56.3335 81.7974 50.1873C81.7974 44.3262 83.684 40.8716 89.6457 40.8716C92.9577 40.8716 94.8444 41.9113 96.4082 43.8986L100.525 40.117C98.0181 36.524 93.6202 35.434 89.499 35.434H89.5032ZM54.2319 35.8616V64.513H74.5654V58.937H60.856V35.8574L54.2319 35.8616ZM15.0826 40.5698C15.7886 40.5698 16.4658 40.8502 16.965 41.3495C17.4643 41.8488 17.7448 42.5259 17.7448 43.232C17.7448 43.938 17.4643 44.6152 16.965 45.1145C16.4658 45.6137 15.7886 45.8942 15.0826 45.8942C14.3765 45.8942 13.6994 45.6137 13.2001 45.1145C12.7008 44.6152 12.4203 43.938 12.4203 43.232C12.4203 42.5259 12.7008 41.8488 13.2001 41.3495C13.6994 40.8502 14.3765 40.5698 15.0826 40.5698ZM21.279 40.5781H23.0399V58.2704H27.4504V60.0061H21.279V40.5781Z" fill="#A9A9B9"/>
</g>
<defs>
<clipPath id="clip0_1_106">
<rect width="100.619" height="100.619" fill="white"/>
</clipPath>
</defs>
</svg>
